<?xml version="1.0" encoding="UTF-8"?>
<svg width="120" height="120" viewBox="0 0 120 120" xmlns="http://www.w3.org/2000/svg">
  <!-- Outer ring -->
  <circle cx="60" cy="60" r="55" fill="none" stroke="#003366" stroke-width="2"/>
  
  <!-- Inner ring -->
  <circle cx="60" cy="60" r="50" fill="none" stroke="#003366" stroke-width="1"/>
  
  <!-- Background -->
  <circle cx="60" cy="60" r="48" fill="#ffffff"/>
  
  <!-- Top text curve -->
  <path id="top-curve" d="M 20 60 A 40 40 0 0 1 100 60" fill="none"/>
  
  <!-- Bottom text curve -->
  <path id="bottom-curve" d="M 100 60 A 40 40 0 0 1 20 60" fill="none"/>
  
  <!-- Department text -->
  <text font-family="serif" font-size="6" font-weight="bold" fill="#003366">
    <textPath href="#top-curve" startOffset="50%" text-anchor="middle">
      DEPARTMENT OF THE AIR FORCE
    </textPath>
  </text>
  
  <!-- United States text -->
  <text font-family="serif" font-size="6" font-weight="bold" fill="#003366">
    <textPath href="#bottom-curve" startOffset="50%" text-anchor="middle">
      UNITED STATES OF AMERICA
    </textPath>
  </text>
  
  <!-- Central shield -->
  <path d="M 60 35 L 70 45 L 70 75 Q 70 85 60 88 Q 50 85 50 75 L 50 45 Z" 
        fill="#003366" stroke="#003366" stroke-width="1"/>
  
  <!-- Eagle in shield -->
  <text x="60" y="68" text-anchor="middle" font-size="16" fill="#ffffff">🦅</text>
  
  <!-- Stars -->
  <g fill="#003366" font-size="8">
    <text x="60" y="25" text-anchor="middle">★</text>
    <text x="45" y="35" text-anchor="middle">★</text>
    <text x="75" y="35" text-anchor="middle">★</text>
    <text x="35" y="60" text-anchor="middle">★</text>
    <text x="85" y="60" text-anchor="middle">★</text>
    <text x="45" y="85" text-anchor="middle">★</text>
    <text x="75" y="85" text-anchor="middle">★</text>
    <text x="60" y="100" text-anchor="middle">★</text>
  </g>
  
  <!-- Date -->
  <text x="60" y="110" text-anchor="middle" font-family="serif" font-size="5" font-weight="bold" fill="#003366">
    MCMXLVII
  </text>
</svg>